<svg height="512" viewBox="0 0 64 64" width="512" xmlns="http://www.w3.org/2000/svg"><g id="Calculator"><rect fill="#d1e7f8" height="58" rx="6" width="46" x="9" y="3"/><rect fill="#2488ff" height="8" rx="2" width="10" x="13" y="49"/><rect fill="#006df0" height="8" rx="2" width="10" x="27" y="37"/><rect fill="#2488ff" height="8" rx="2" width="10" x="13" y="37"/><rect fill="#006df0" height="8" rx="2" width="10" x="27" y="25"/><rect fill="#2488ff" height="8" rx="2" width="10" x="13" y="25"/><rect fill="#006df0" height="8" rx="2" width="10" x="41" y="25"/><rect fill="#ffcd00" height="12" rx="2" width="38" x="13" y="7"/><path d="m17 61h32a6 6 0 0 0 6-6v-26c0 17.688-17 32-38 32z" fill="#9bc9ff"/><rect fill="#ed1c24" height="20" rx="2" width="10" x="41" y="37"/><rect fill="#006df0" height="8" rx="2" width="10" x="27" y="49"/><g fill="#231f20"><path d="m49 62h-34a7.008 7.008 0 0 1 -7-7v-46a7.008 7.008 0 0 1 7-7h34a7.008 7.008 0 0 1 7 7v46a7.008 7.008 0 0 1 -7 7zm-34-58a5.006 5.006 0 0 0 -5 5v46a5.006 5.006 0 0 0 5 5h34a5.006 5.006 0 0 0 5-5v-46a5.006 5.006 0 0 0 -5-5z"/><path d="m35 58h-6a3 3 0 0 1 -3-3v-4a3 3 0 0 1 3-3h6a3 3 0 0 1 3 3v4a3 3 0 0 1 -3 3zm-6-8a1 1 0 0 0 -1 1v4a1 1 0 0 0 1 1h6a1 1 0 0 0 1-1v-4a1 1 0 0 0 -1-1z"/><path d="m21 58h-6a3 3 0 0 1 -3-3v-4a3 3 0 0 1 3-3h6a3 3 0 0 1 3 3v4a3 3 0 0 1 -3 3zm-6-8a1 1 0 0 0 -1 1v4a1 1 0 0 0 1 1h6a1 1 0 0 0 1-1v-4a1 1 0 0 0 -1-1z"/><path d="m49 58h-6a3 3 0 0 1 -3-3v-16a3 3 0 0 1 3-3h6a3 3 0 0 1 3 3v16a3 3 0 0 1 -3 3zm-6-20a1 1 0 0 0 -1 1v16a1 1 0 0 0 1 1h6a1 1 0 0 0 1-1v-16a1 1 0 0 0 -1-1z"/><path d="m35 46h-6a3 3 0 0 1 -3-3v-4a3 3 0 0 1 3-3h6a3 3 0 0 1 3 3v4a3 3 0 0 1 -3 3zm-6-8a1 1 0 0 0 -1 1v4a1 1 0 0 0 1 1h6a1 1 0 0 0 1-1v-4a1 1 0 0 0 -1-1z"/><path d="m21 46h-6a3 3 0 0 1 -3-3v-4a3 3 0 0 1 3-3h6a3 3 0 0 1 3 3v4a3 3 0 0 1 -3 3zm-6-8a1 1 0 0 0 -1 1v4a1 1 0 0 0 1 1h6a1 1 0 0 0 1-1v-4a1 1 0 0 0 -1-1z"/><path d="m35 34h-6a3 3 0 0 1 -3-3v-4a3 3 0 0 1 3-3h6a3 3 0 0 1 3 3v4a3 3 0 0 1 -3 3zm-6-8a1 1 0 0 0 -1 1v4a1 1 0 0 0 1 1h6a1 1 0 0 0 1-1v-4a1 1 0 0 0 -1-1z"/><path d="m21 34h-6a3 3 0 0 1 -3-3v-4a3 3 0 0 1 3-3h6a3 3 0 0 1 3 3v4a3 3 0 0 1 -3 3zm-6-8a1 1 0 0 0 -1 1v4a1 1 0 0 0 1 1h6a1 1 0 0 0 1-1v-4a1 1 0 0 0 -1-1z"/><path d="m49 34h-6a3 3 0 0 1 -3-3v-4a3 3 0 0 1 3-3h6a3 3 0 0 1 3 3v4a3 3 0 0 1 -3 3zm-6-8a1 1 0 0 0 -1 1v4a1 1 0 0 0 1 1h6a1 1 0 0 0 1-1v-4a1 1 0 0 0 -1-1z"/><path d="m49 20h-34a3 3 0 0 1 -3-3v-8a3 3 0 0 1 3-3h34a3 3 0 0 1 3 3v8a3 3 0 0 1 -3 3zm-34-12a1 1 0 0 0 -1 1v8a1 1 0 0 0 1 1h34a1 1 0 0 0 1-1v-8a1 1 0 0 0 -1-1z"/><path d="m46 17a3 3 0 0 1 -3-3v-2a3 3 0 0 1 6 0v2a3 3 0 0 1 -3 3zm0-6a1 1 0 0 0 -1 1v2a1 1 0 0 0 2 0v-2a1 1 0 0 0 -1-1z"/></g></g></svg>