<?xml version="1.0" encoding="iso-8859-1"?>
<!-- Generator: Adobe Illustrator 19.0.0, SVG Export Plug-In . SVG Version: 6.00 Build 0)  -->
<svg version="1.1" id="Capa_1" xmlns="http://www.w3.org/2000/svg" xmlns:xlink="http://www.w3.org/1999/xlink" x="0px" y="0px"
	 viewBox="0 0 524.8 524.8" style="enable-background:new 0 0 524.8 524.8;" xml:space="preserve">
<circle style="fill:#FFBF5D;" cx="262.4" cy="262.4" r="156.8"/>
<circle style="fill:#FFFFFF;" cx="262.4" cy="262.4" r="118.4"/>
<path style="fill:#193651;" d="M262.4,388.8C192.8,388.8,136,332,136,262.4S192.8,136,262.4,136s126.4,56.8,126.4,126.4
	S332,388.8,262.4,388.8z M262.4,152C201.6,152,152,201.6,152,262.4s49.6,110.4,110.4,110.4s110.4-49.6,110.4-110.4
	S323.2,152,262.4,152z"/>
<ellipse style="fill:#FFFFFF;" cx="262.4" cy="262.4" rx="68" ry="118.4"/>
<g>
	<path style="fill:#193651;" d="M262.4,388.8c-42.4,0-76-56-76-126.4S220,136,262.4,136s76,56,76,126.4S304.8,388.8,262.4,388.8z
		 M262.4,152c-32.8,0-60,50.4-60,110.4s27.2,110.4,60,110.4s60-50.4,60-110.4S295.2,152,262.4,152z"/>
	<path style="fill:#193651;" d="M399.2,437.6l-9.6-12.8c4-3.2,8-6.4,12-9.6l10.4,12C408,430.4,404,434.4,399.2,437.6z M424,415.2
		L412,404c3.2-4,7.2-7.2,10.4-11.2l12,10.4C431.2,407.2,428,411.2,424,415.2z M444.8,389.6l-12.8-8.8c2.4-4,4.8-7.2,7.2-11.2l13.6,8
		C450.4,381.6,448,385.6,444.8,389.6z"/>
	<path style="fill:#193651;" d="M262.4,484.8c-0.8,0-1.6,0-2.4,0v-16c40,0.8,79.2-11.2,112.8-32.8l8.8,13.6
		C346.4,472.8,304.8,484.8,262.4,484.8z"/>
	<path style="fill:#193651;" d="M88.8,150.4l-13.6-8.8c1.6-2.4,3.2-4.8,4.8-6.4l12.8,8.8C91.2,146.4,90.4,148,88.8,150.4z
		 M102.4,132l-12-10.4c3.2-4,7.2-8.8,11.2-12.8l12,11.2C108.8,124,105.6,128,102.4,132z M123.2,109.6l-10.4-12c4-4,8-7.2,12.8-10.4
		l9.6,12.8C131.2,103.2,127.2,106.4,123.2,109.6z"/>
	<path style="fill:#193651;" d="M151.2,88l-8.8-12.8C179.2,52,220.8,40,264,40v16C224,55.2,184.8,66.4,151.2,88z"/>
</g>
<polygon style="fill:#FFFFFF;" points="261.6,443.2 205.6,476.8 261.6,510.4 "/>
<path style="fill:#193651;" d="M269.6,524.8l-79.2-48l79.2-47.2V524.8z M221.6,476.8l32,19.2v-38.4L221.6,476.8z"/>
<polygon style="fill:#FFFFFF;" points="264,81.6 320,48 264,14.4 "/>
<g>
	<path style="fill:#193651;" d="M256,95.2V0l79.2,47.2L256,95.2z M272,28.8v38.4L304,48L272,28.8z"/>
	<path style="fill:#193651;" d="M145.6,452c-4-2.4-7.2-4.8-10.4-7.2L144,432c3.2,2.4,6.4,4.8,9.6,6.4L145.6,452z M121.6,435.2
		c-4-3.2-8.8-7.2-12.8-11.2l11.2-12c4,3.2,8,7.2,11.2,10.4L121.6,435.2z M97.6,412c-4-4-7.2-8-10.4-12.8l12.8-9.6
		c3.2,4,6.4,8,9.6,12L97.6,412z"/>
	<path style="fill:#193651;" d="M75.2,382.4C52,345.6,40,304,40,260.8h16c0,40,11.2,79.2,32.8,112.8L75.2,382.4z"/>
	<path style="fill:#193651;" d="M424.8,135.2c-3.2-4-6.4-8-9.6-12l12-10.4c4,4,7.2,8,10.4,12.8L424.8,135.2z M404,112.8
		c-4-3.2-8-7.2-11.2-10.4l10.4-12.8c4,3.2,8.8,7.2,12.8,11.2L404,112.8z M380.8,92.8c-2.4-1.6-4.8-3.2-7.2-4.8l8.8-13.6
		c2.4,1.6,5.6,3.2,8,5.6L380.8,92.8z"/>
	<path style="fill:#193651;" d="M484.8,264h-16c0-40-11.2-79.2-32.8-112.8l13.6-8.8C473.6,179.2,485.6,221.6,484.8,264z"/>
</g>
<polygon style="fill:#FFFFFF;" points="81.6,261.6 48,205.6 14.4,261.6 "/>
<path style="fill:#193651;" d="M95.2,269.6H0l48-79.2L95.2,269.6z M28.8,253.6h38.4l-19.2-32L28.8,253.6z"/>
<polygon style="fill:#FFFFFF;" points="443.2,264 476.8,320 510.4,264 "/>
<path style="fill:#193651;" d="M476.8,336l-47.2-79.2h95.2L476.8,336z M457.6,272l19.2,32l19.2-32H457.6z"/>
<rect x="144" y="254.4" style="fill:#193651;" width="237.6" height="16"/>
<rect x="254.4" y="144" style="fill:#193651;" width="16" height="237.6"/>
<g>
</g>
<g>
</g>
<g>
</g>
<g>
</g>
<g>
</g>
<g>
</g>
<g>
</g>
<g>
</g>
<g>
</g>
<g>
</g>
<g>
</g>
<g>
</g>
<g>
</g>
<g>
</g>
<g>
</g>
</svg>
