<?xml version="1.0" encoding="utf-8"?>
<!-- Generator: Adobe Illustrator 22.1.0, SVG Export Plug-In . SVG Version: 6.00 Build 0)  -->
<svg version="1.1" id="图层_1" xmlns="http://www.w3.org/2000/svg" xmlns:xlink="http://www.w3.org/1999/xlink" x="0px" y="0px"
	 viewBox="0 0 200 200" style="enable-background:new 0 0 200 200;" xml:space="preserve">
<style type="text/css">
	.st0{opacity:0.2;}
	.st1{fill:#040000;}
	.st2{fill:#54B395;}
	.st3{opacity:0.3;fill:#54B395;}
	.st4{fill:#F2F2F2;}
	.st5{fill:#4E4D4D;}
	.st6{font-family:'Exo-Bold';}
	.st7{font-size:19.5672px;}
	.st8{fill:none;}
	.st9{font-family:'ChalkboardSE-Light';}
	.st10{font-size:12px;}
</style>
<g>
	<g class="st0">
		<path class="st1" d="M19.4,116c0-44.9,36.4-81.3,81.3-81.3c44.9,0,81.3,36.4,81.3,81.3c0,44.9-36.4,81.3-81.3,81.3
			C55.8,197.3,19.4,160.9,19.4,116"/>
	</g>
	<g>
		<path class="st2" d="M19.4,112.4c0-44.9,36.4-81.3,81.3-81.3c44.9,0,81.3,36.4,81.3,81.3c0,44.9-36.4,81.3-81.3,81.3
			C55.8,193.7,19.4,157.3,19.4,112.4"/>
	</g>
</g>
<path class="st3" d="M165.5,156.8c-17.2,17.2-40.7,32.4-65,32.4c-24.3,0-47.8-15.3-65-32.4c-3.1-3.1-6-6.5-8.6-10
	c12.9,27.7,41.1,46.9,73.7,46.9c32.8,0,61.1-19.5,73.9-47.5C171.8,149.9,168.8,153.5,165.5,156.8z"/>
<path class="st4" d="M168.5,112.4c0,37.5-30.4,67.8-67.8,67.8c-37.5,0-67.8-30.4-67.8-67.8c0-37.5,30.4-67.8,67.8-67.8
	C138.1,44.6,168.5,75,168.5,112.4z"/>
<path class="st4" d="M46.5,73.8c14.2-14.2,33.6-22.2,53.7-22.2c20.1,0,39.5,8.1,53.7,22.2c2.9,2.9,5.6,6,7.9,9.4
	c-10.9-22.8-34.2-38.5-61.2-38.5c-25.5,0-47.8,14.1-59.3,35C42.9,77.6,44.7,75.6,46.5,73.8z"/>
<g>
	<text transform="matrix(1 0 0 1 90.6069 66.8511)" class="st5 st6 st7">12</text>
</g>
<g>
	<text transform="matrix(1 0 0 1 95.626 172.5703)" class="st5 st6 st7">6</text>
</g>
<g>
	<text transform="matrix(1 0 0 1 148.4854 119.7109)" class="st5 st6 st7">3</text>
</g>
<g>
	<text transform="matrix(1 0 0 1 42.7666 119.7104)" class="st5 st6 st7">9</text>
</g>
<g>
	<text transform="matrix(1 0 0 1 142.6909 92.7949)" class="st5 st6 st7">2</text>
</g>
<g>
	<text transform="matrix(1 0 0 1 43.729 92.7949)" class="st5 st6 st7">10</text>
</g>
<g>
	<text transform="matrix(1 0 0 1 123.5723 74.1035)" class="st5 st6 st7">1</text>
</g>
<g>
	<text transform="matrix(1 0 0 1 62.8477 74.104)" class="st5 st6 st7">11</text>
</g>
<g>
	<text transform="matrix(1 0 0 1 123.5723 166.0645)" class="st5 st6 st7">5</text>
</g>
<g>
	<text transform="matrix(1 0 0 1 67.8662 166.0664)" class="st5 st6 st7">7</text>
</g>
<g>
	<text transform="matrix(1 0 0 1 142.6909 146.0654)" class="st5 st6 st7">4</text>
</g>
<g>
	<text transform="matrix(1 0 0 1 48.7476 146.0664)" class="st5 st6 st7">8</text>
</g>
<polygon class="st2" points="100.6,60.9 97.1,65.9 97.9,112.4 103.4,112.4 104.2,65.9 "/>
<polygon class="st2" points="100.6,145.6 104.2,140.6 103.4,112.4 97.9,112.4 97.1,140.6 "/>
<path class="st5" d="M106.1,112.4c0,3-2.5,5.5-5.5,5.5c-3,0-5.5-2.5-5.5-5.5c0-3,2.5-5.5,5.5-5.5
	C103.7,106.9,106.1,109.4,106.1,112.4z"/>
<polygon class="st8" points="187.5,31.1 31.5,31.1 30.7,8.3 186.6,8.3 "/>
<text transform="matrix(1 0 0 1 31.0382 18.2496)" class="st1 st9 st10">Phoenix 18:00/ 6:00pm</text>
</svg>
