<?xml version="1.0" encoding="utf-8"?>
<!-- Generator: Adobe Illustrator 22.1.0, SVG Export Plug-In . SVG Version: 6.00 Build 0)  -->
<svg version="1.1" id="图层_1" xmlns="http://www.w3.org/2000/svg" xmlns:xlink="http://www.w3.org/1999/xlink" x="0px" y="0px"
	 viewBox="0 0 200 200" style="enable-background:new 0 0 200 200;" xml:space="preserve">
<style type="text/css">
	.st0{opacity:0.2;}
	.st1{fill:#040000;}
	.st2{fill:#EB893A;}
	.st3{opacity:0.3;fill:#EB893A;}
	.st4{fill:#F2F2F2;}
	.st5{fill:#4E4D4D;}
	.st6{font-family:'Exo-Bold';}
	.st7{font-size:19.5672px;}
	.st8{fill:none;}
	.st9{font-family:'ChalkboardSE-Light';}
	.st10{font-size:12px;}
</style>
<g>
	<g class="st0">
		<path class="st1" d="M16.9,114c0-44.9,36.4-81.3,81.3-81.3"/>
	</g>
	<g>
		<path class="st2" d="M16.9,110.4c0-44.9,36.4-81.3,81.3-81.3"/>
	</g>
</g>
<g>
	<g class="st0">
		<path class="st1" d="M98.2,32.8c44.9,0,81.3,36.4,81.3,81.3c0,44.9-36.4,81.3-81.3,81.3c-44.9,0-81.3-36.4-81.3-81.3"/>
	</g>
	<g>
		<path class="st2" d="M98.2,29.1c44.9,0,81.3,36.4,81.3,81.3c0,44.9-36.4,81.3-81.3,81.3c-44.9,0-81.3-36.4-81.3-81.3"/>
	</g>
</g>
<path class="st3" d="M163.1,154.8c-17.2,17.2-40.7,32.4-65,32.4c-24.3,0-47.8-15.3-65-32.4c-3.1-3.1-6-6.5-8.6-10
	c12.9,27.7,41.1,46.9,73.7,46.9c32.8,0,61.1-19.5,73.9-47.5C169.4,147.9,166.4,151.5,163.1,154.8z"/>
<path class="st4" d="M166,110.4c0,37.5-30.4,67.8-67.8,67.8c-37.5,0-67.8-30.4-67.8-67.8c0-37.5,30.4-67.8,67.8-67.8
	C135.7,42.6,166,73,166,110.4z"/>
<path class="st4" d="M44.1,71.8c14.2-14.2,33.6-22.2,53.7-22.2c20.1,0,39.5,8.1,53.7,22.2c2.9,2.9,5.6,6,7.9,9.4
	c-10.9-22.8-34.2-38.5-61.2-38.5c-25.5,0-47.8,14.1-59.3,35C40.5,75.6,42.2,73.6,44.1,71.8z"/>
<g>
	<text transform="matrix(1 0 0 1 88.1665 64.8511)" class="st5 st6 st7">12</text>
</g>
<g>
	<text transform="matrix(1 0 0 1 93.1855 170.5703)" class="st5 st6 st7">6</text>
</g>
<g>
	<text transform="matrix(1 0 0 1 146.0449 117.7109)" class="st5 st6 st7">3</text>
</g>
<g>
	<text transform="matrix(1 0 0 1 40.3257 117.7104)" class="st5 st6 st7">9</text>
</g>
<g>
	<text transform="matrix(1 0 0 1 140.25 90.7949)" class="st5 st6 st7">2</text>
</g>
<g>
	<text transform="matrix(1 0 0 1 41.2886 90.7949)" class="st5 st6 st7">10</text>
</g>
<g>
	<text transform="matrix(1 0 0 1 121.1318 72.1035)" class="st5 st6 st7">1</text>
</g>
<g>
	<text transform="matrix(1 0 0 1 60.4072 72.104)" class="st5 st6 st7">11</text>
</g>
<g>
	<text transform="matrix(1 0 0 1 121.1318 164.0645)" class="st5 st6 st7">5</text>
</g>
<g>
	<text transform="matrix(1 0 0 1 65.4258 164.0664)" class="st5 st6 st7">7</text>
</g>
<g>
	<text transform="matrix(1 0 0 1 140.25 144.0654)" class="st5 st6 st7">4</text>
</g>
<g>
	<text transform="matrix(1 0 0 1 46.3071 144.0664)" class="st5 st6 st7">8</text>
</g>
<polygon class="st2" points="98.2,58.9 94.7,63.9 95.4,110.4 101,110.4 101.7,63.9 "/>
<polygon class="st2" points="81.6,139.2 87.2,136.6 100.6,111.8 95.8,109 81,133.1 "/>
<path class="st5" d="M103.7,110.4c0,3-2.5,5.5-5.5,5.5c-3,0-5.5-2.5-5.5-5.5c0-3,2.5-5.5,5.5-5.5
	C101.2,104.9,103.7,107.4,103.7,110.4z"/>
<polygon class="st8" points="179.5,37.7 37.4,37.7 36.6,8 178.7,8 "/>
<text transform="matrix(1 0 0 1 36.8817 17.9771)" class="st1 st9 st10">Chicago 19:00/ 7:00pm</text>
</svg>
