<?xml version="1.0" encoding="utf-8"?>
<!-- Generator: Adobe Illustrator 22.1.0, SVG Export Plug-In . SVG Version: 6.00 Build 0)  -->
<svg version="1.1" id="图层_1" xmlns="http://www.w3.org/2000/svg" xmlns:xlink="http://www.w3.org/1999/xlink" x="0px" y="0px"
	 viewBox="0 0 200 200" style="enable-background:new 0 0 200 200;" xml:space="preserve">
<style type="text/css">
	.st0{fill:none;}
	.st1{fill:#040000;}
	.st2{font-family:'ChalkboardSE-Light';}
	.st3{font-size:12px;}
	.st4{opacity:0.2;}
	.st5{fill:#3688A1;}
	.st6{fill:#54B395;}
	.st7{opacity:0.3;fill:#54B395;}
	.st8{fill:#F2F2F2;}
	.st9{fill:#4E4D4D;}
	.st10{font-family:'Exo-Bold';}
	.st11{font-size:19.5672px;}
</style>
<polygon class="st0" points="159.5,37.9 42.9,37.9 42.3,8.1 158.9,8.1 "/>
<text transform="matrix(1 0 0 1 42.5184 18.1133)" class="st1 st2 st3">London 1:00/ 1:00am</text>
<rect x="200" y="205" class="st0" width="0" height="17"/>
<g>
	<g>
		<g class="st4">
			<path class="st1" d="M100,31.4"/>
		</g>
		<g>
			<path class="st5" d="M100,27.8"/>
		</g>
	</g>
</g>
<g>
	<g>
		<g class="st4">
			<path class="st1" d="M100.9,31.4"/>
		</g>
		<g>
			<path class="st6" d="M100.9,27.8"/>
		</g>
	</g>
	<g>
		<g class="st4">
			<path class="st1" d="M100.9,194"/>
		</g>
		<g>
			<path class="st6" d="M100.9,190.4"/>
		</g>
	</g>
	<path class="st7" d="M100.9,190.4"/>
</g>
<g>
	<g>
		<g class="st4">
			
				<ellipse transform="matrix(0.1594 -0.9872 0.9872 0.1594 -26.4033 194.3576)" class="st1" cx="100.9" cy="112.7" rx="81.3" ry="81.3"/>
		</g>
		<g>
			
				<ellipse transform="matrix(0.1594 -0.9872 0.9872 0.1594 -22.8421 191.3252)" class="st6" cx="100.9" cy="109.1" rx="81.3" ry="81.3"/>
		</g>
	</g>
	<path class="st7" d="M165.8,153.4c-17.2,17.2-40.7,32.4-65,32.4c-24.3,0-47.8-15.3-65-32.4c-3.1-3.1-6-6.5-8.6-10
		c12.9,27.7,41.1,46.9,73.7,46.9c32.8,0,61.1-19.5,73.9-47.5C172.1,146.6,169.1,150.1,165.8,153.4z"/>
	
		<ellipse transform="matrix(0.7071 -0.7071 0.7071 0.7071 -47.568 103.3112)" class="st8" cx="100.9" cy="109.1" rx="67.8" ry="67.8"/>
	<path class="st8" d="M46.8,70.5C61,56.3,80.4,48.2,100.5,48.2c20.1,0,39.5,8.1,53.7,22.2c2.9,2.9,5.6,6,7.9,9.4
		c-10.9-22.8-34.2-38.5-61.2-38.5c-25.5,0-47.8,14.1-59.3,35C43.2,74.2,44.9,72.3,46.8,70.5z"/>
	<g>
		<text transform="matrix(1 0 0 1 90.8872 63.5049)" class="st9 st10 st11">12</text>
	</g>
	<g>
		<text transform="matrix(1 0 0 1 95.9063 169.2241)" class="st9 st10 st11">6</text>
	</g>
	<g>
		<text transform="matrix(1 0 0 1 148.7656 116.3642)" class="st9 st10 st11">3</text>
	</g>
	<g>
		<text transform="matrix(1 0 0 1 43.0464 116.3647)" class="st9 st10 st11">9</text>
	</g>
	<g>
		<text transform="matrix(1 0 0 1 142.9707 89.4482)" class="st9 st10 st11">2</text>
	</g>
	<g>
		<text transform="matrix(1 0 0 1 44.0093 89.4492)" class="st9 st10 st11">10</text>
	</g>
	<g>
		<text transform="matrix(1 0 0 1 123.8525 70.7563)" class="st9 st10 st11">1</text>
	</g>
	<g>
		<text transform="matrix(1 0 0 1 63.1279 70.7578)" class="st9 st10 st11">11</text>
	</g>
	<g>
		<text transform="matrix(1 0 0 1 123.8525 162.7187)" class="st9 st10 st11">5</text>
	</g>
	<g>
		<text transform="matrix(1 0 0 1 68.1465 162.7197)" class="st9 st10 st11">7</text>
	</g>
	<g>
		<text transform="matrix(1 0 0 1 142.9707 142.7192)" class="st9 st10 st11">4</text>
	</g>
	<g>
		<text transform="matrix(1 0 0 1 49.0278 142.7202)" class="st9 st10 st11">8</text>
	</g>
	<polygon class="st6" points="100.9,57.5 97.4,62.6 98.1,109.1 103.7,109.1 104.5,62.6 	"/>
	<polygon class="st6" points="100.9,75.9 97.4,80.9 98.1,109.1 103.7,109.1 104.5,80.9 	"/>
	<polygon class="st6" points="117.5,80.3 111.9,82.9 98.5,107.7 103.3,110.5 118.1,86.4 	"/>
	<path class="st9" d="M106.4,109.1c0,3-2.5,5.5-5.5,5.5c-3,0-5.5-2.5-5.5-5.5c0-3,2.5-5.5,5.5-5.5C104,103.6,106.4,106,106.4,109.1z
		"/>
</g>
</svg>
