<?xml version="1.0" encoding="utf-8"?>
<!-- Generator: Adobe Illustrator 22.1.0, SVG Export Plug-In . SVG Version: 6.00 Build 0)  -->
<svg version="1.1" id="图层_1" xmlns="http://www.w3.org/2000/svg" xmlns:xlink="http://www.w3.org/1999/xlink" x="0px" y="0px"
	 viewBox="0 0 200 200" style="enable-background:new 0 0 200 200;" xml:space="preserve">
<style type="text/css">
	.st0{fill:none;}
	.st1{fill:#040000;}
	.st2{font-family:'ChalkboardSE-Light';}
	.st3{font-size:12px;}
	.st4{opacity:0.2;}
	.st5{fill:#3688A1;}
	.st6{opacity:0.3;fill:#3688A1;enable-background:new    ;}
	.st7{fill:#F2F2F2;}
	.st8{fill:#4E4D4D;}
	.st9{font-family:'ArialMT';}
	.st10{font-size:19.5672px;}
</style>
<polygon class="st0" points="170.1,37.9 34.8,37.9 34.1,8.1 169.4,8.1 "/>
<text transform="matrix(1 0 0 1 34.3461 18.1133)" class="st1 st2 st3">Tokyo 10:00/ 10:00am</text>
<rect x="200" y="205" class="st0" width="0" height="17"/>
<g>
	<g>
		<g class="st4">
			<ellipse class="st1" cx="100" cy="112.7" rx="81.3" ry="81.3"/>
		</g>
		<g>
			<ellipse class="st5" cx="100" cy="109.1" rx="81.3" ry="81.3"/>
		</g>
	</g>
	<path class="st6" d="M164.9,153.4c-17.2,17.2-40.7,32.4-65,32.4s-47.8-15.3-65-32.4c-3.1-3.1-6-6.5-8.6-10
		c12.9,27.7,41.1,46.9,73.7,46.9c32.8,0,61.1-19.5,73.9-47.5C171.2,146.6,168.2,150.1,164.9,153.4z"/>
	<path class="st7" d="M167.8,109.1c0,37.5-30.4,67.8-67.8,67.8c-37.5,0-67.8-30.4-67.8-67.8c0-37.5,30.4-67.8,67.8-67.8
		C137.5,41.3,167.8,71.6,167.8,109.1z"/>
	<path class="st7" d="M45.9,70.5C60,56.3,79.5,48.2,99.6,48.2s39.5,8.1,53.7,22.2c2.9,2.9,5.6,6,7.9,9.3C150.3,57,127,41.3,100,41.3
		c-25.5,0-47.8,14.1-59.3,35C42.3,74.2,44,72.3,45.9,70.5z"/>
	<g>
		<text transform="matrix(1 0 0 1 89.9634 63.5049)" class="st8 st9 st10">12</text>
	</g>
	<g>
		<text transform="matrix(1 0 0 1 94.9825 169.2241)" class="st8 st9 st10">6</text>
	</g>
	<g>
		<text transform="matrix(1 0 0 1 147.8418 116.3638)" class="st8 st9 st10">3</text>
	</g>
	<g>
		<text transform="matrix(1 0 0 1 42.1226 116.3643)" class="st8 st9 st10">9</text>
	</g>
	<g>
		<text transform="matrix(1 0 0 1 142.0469 89.4482)" class="st8 st9 st10">2</text>
	</g>
	<g>
		<text transform="matrix(1 0 0 1 43.0855 89.4497)" class="st8 st9 st10">10</text>
	</g>
	<g>
		<text transform="matrix(1 0 0 1 122.9287 70.7573)" class="st8 st9 st10">1</text>
	</g>
	<g>
		<text transform="matrix(1 0 0 1 62.2041 70.7578)" class="st8 st9 st10">11</text>
	</g>
	<g>
		<text transform="matrix(1 0 0 1 122.9287 162.7197)" class="st8 st9 st10">5</text>
	</g>
	<g>
		<text transform="matrix(1 0 0 1 67.2227 162.7197)" class="st8 st9 st10">7</text>
	</g>
	<g>
		<text transform="matrix(1 0 0 1 142.0469 142.7197)" class="st8 st9 st10">4</text>
	</g>
	<g>
		<text transform="matrix(1 0 0 1 48.104 142.7202)" class="st8 st9 st10">8</text>
	</g>
	<polygon class="st5" points="100,57.5 96.5,62.6 97.2,109.1 102.8,109.1 103.5,62.6 	"/>
	<polygon class="st5" points="71.2,92.5 73.8,98 98.6,111.5 101.4,106.7 77.4,91.9 	"/>
	<path class="st8" d="M105.5,109.1c0,3-2.5,5.5-5.5,5.5s-5.5-2.5-5.5-5.5s2.5-5.5,5.5-5.5S105.5,106,105.5,109.1z"/>
</g>
</svg>
