<?xml version="1.0" encoding="utf-8"?>
<!-- Generator: Adobe Illustrator 22.1.0, SVG Export Plug-In . SVG Version: 6.00 Build 0)  -->
<svg version="1.1" id="图层_1" xmlns="http://www.w3.org/2000/svg" xmlns:xlink="http://www.w3.org/1999/xlink" x="0px" y="0px"
	 viewBox="0 0 200 200" style="enable-background:new 0 0 200 200;" xml:space="preserve">
<style type="text/css">
	.st0{opacity:0.2;}
	.st1{fill:#040000;}
	.st2{fill:#E34B45;}
	.st3{opacity:0.3;fill:#E34B45;}
	.st4{fill:#F2F2F2;}
	.st5{fill:#4E4D4D;}
	.st6{font-family:'Exo-Bold';}
	.st7{font-size:19.5672px;}
	.st8{fill:none;}
	.st9{font-family:'ChalkboardSE-Light';}
	.st10{font-size:12px;}
</style>
<g>
	<g class="st0">
		<path class="st1" d="M19.5,112c0-44.9,36.4-81.3,81.3-81.3c44.9,0,81.3,36.4,81.3,81.3"/>
	</g>
	<g>
		<path class="st2" d="M19.5,108.4c0-44.9,36.4-81.3,81.3-81.3c44.9,0,81.3,36.4,81.3,81.3"/>
	</g>
</g>
<g>
	<g class="st0">
		<path class="st1" d="M182,112c0,44.9-36.4,81.3-81.3,81.3c-44.9,0-81.3-36.4-81.3-81.3"/>
	</g>
	<g>
		<path class="st2" d="M182,108.4c0,44.9-36.4,81.3-81.3,81.3c-44.9,0-81.3-36.4-81.3-81.3"/>
	</g>
</g>
<path class="st3" d="M27.1,142.8c12.9,27.7,41.1,46.9,73.7,46.9c32.8,0,61.1-19.5,73.9-47.5c-2.7,3.7-5.7,7.2-9,10.5
	c-17.2,17.2-40.7,32.4-65,32.4c-24.3,0-47.8-15.3-65-32.4C32.6,149.6,29.7,146.3,27.1,142.8"/>
<path class="st4" d="M168.6,108.4c0,37.5-30.4,67.8-67.8,67.8c-37.5,0-67.8-30.4-67.8-67.8c0-37.5,30.4-67.8,67.8-67.8
	C138.2,40.6,168.6,71,168.6,108.4z"/>
<path class="st4" d="M46.6,69.8c14.2-14.2,33.6-22.2,53.7-22.2c20.1,0,39.5,8.1,53.7,22.2c2.9,2.9,5.6,6,7.9,9.4
	c-10.9-22.8-34.2-38.5-61.2-38.5c-25.5,0-47.8,14.1-59.3,35C43.1,73.6,44.8,71.6,46.6,69.8z"/>
<g>
	<text transform="matrix(1 0 0 1 90.7256 62.8511)" class="st5 st6 st7">12</text>
</g>
<g>
	<text transform="matrix(1 0 0 1 95.7451 168.5703)" class="st5 st6 st7">6</text>
</g>
<g>
	<text transform="matrix(1 0 0 1 148.605 115.7109)" class="st5 st6 st7">3</text>
</g>
<g>
	<text transform="matrix(1 0 0 1 42.8862 115.7104)" class="st5 st6 st7">9</text>
</g>
<g>
	<text transform="matrix(1 0 0 1 142.8105 88.7949)" class="st5 st6 st7">2</text>
</g>
<g>
	<text transform="matrix(1 0 0 1 43.8477 88.7949)" class="st5 st6 st7">10</text>
</g>
<g>
	<text transform="matrix(1 0 0 1 123.6909 70.1035)" class="st5 st6 st7">1</text>
</g>
<g>
	<text transform="matrix(1 0 0 1 62.9658 70.104)" class="st5 st6 st7">11</text>
</g>
<g>
	<text transform="matrix(1 0 0 1 123.6909 162.0645)" class="st5 st6 st7">5</text>
</g>
<g>
	<text transform="matrix(1 0 0 1 67.9854 162.0664)" class="st5 st6 st7">7</text>
</g>
<g>
	<text transform="matrix(1 0 0 1 142.8105 142.0654)" class="st5 st6 st7">4</text>
</g>
<g>
	<text transform="matrix(1 0 0 1 48.8672 142.0664)" class="st5 st6 st7">8</text>
</g>
<polygon class="st2" points="100.8,56.9 97.2,61.9 98,108.4 103.5,108.4 104.3,61.9 "/>
<polygon class="st2" points="72,125 78.1,125.6 102.2,110.8 99.4,106 74.6,119.4 "/>
<path class="st5" d="M106.3,108.4c0,3-2.5,5.5-5.5,5.5c-3,0-5.5-2.5-5.5-5.5c0-3,2.5-5.5,5.5-5.5
	C103.8,102.9,106.3,105.4,106.3,108.4z"/>
<rect x="27.1" y="9.1" class="st8" width="158.5" height="18"/>
<text transform="matrix(1 0 0 1 27.0957 19.1299)" class="st1 st9 st10">New York 20:00/ 8:00pm</text>
<polyline class="st8" points="184.3,30.3 168.7,30.3 168.7,30.3 184.3,30.3 "/>
</svg>
