<?xml version="1.0" encoding="utf-8"?>
<!-- Generator: Adobe Illustrator 22.1.0, SVG Export Plug-In . SVG Version: 6.00 Build 0)  -->
<svg version="1.1" id="图层_1" xmlns="http://www.w3.org/2000/svg" xmlns:xlink="http://www.w3.org/1999/xlink" x="0px" y="0px"
	 viewBox="0 0 200 200" style="enable-background:new 0 0 200 200;" xml:space="preserve">
<style type="text/css">
	.st0{fill:none;}
	.st1{fill:#040000;}
	.st2{font-family:'ChalkboardSE-Light';}
	.st3{font-size:12px;}
	.st4{opacity:0.2;}
	.st5{fill:#3688A1;}
	.st6{fill:#54B395;}
	.st7{opacity:0.3;fill:#54B395;}
	.st8{fill:#F2F2F2;}
	.st9{fill:#EB893A;}
	.st10{opacity:0.3;fill:#EB893A;}
	.st11{fill:#4E4D4D;}
	.st12{font-family:'Exo-Bold';}
	.st13{font-size:19.5672px;}
</style>
<polygon class="st0" points="158.6,37.9 42,37.9 41.4,8.1 158,8.1 "/>
<text transform="matrix(1 0 0 1 41.5949 18.1133)" class="st1 st2 st3">Paris 2:00/ 2:00am</text>
<rect x="200" y="205" class="st0" width="0" height="17"/>
<g>
	<g>
		<g class="st4">
			<path class="st1" d="M100,31.4"/>
		</g>
		<g>
			<path class="st5" d="M100,27.8"/>
		</g>
	</g>
</g>
<g>
	<g>
		<g class="st4">
			<path class="st1" d="M100.9,31.4"/>
		</g>
		<g>
			<path class="st6" d="M100.9,27.8"/>
		</g>
	</g>
	<g>
		<g class="st4">
			<path class="st1" d="M100.9,194"/>
		</g>
		<g>
			<path class="st6" d="M100.9,190.4"/>
		</g>
	</g>
	<path class="st7" d="M100.9,190.4"/>
</g>
<g>
	<g>
		<g class="st4">
			<path class="st1" d="M100.9,31.4"/>
		</g>
		<g>
			<path class="st6" d="M100.9,27.8"/>
		</g>
	</g>
	<g>
		<g class="st4">
			<path class="st1" d="M19.6,112.7"/>
		</g>
		<g>
			<path class="st6" d="M19.6,109.1"/>
		</g>
	</g>
	<g>
		<g class="st4">
			<path class="st1" d="M100.9,194"/>
		</g>
		<g>
			<path class="st6" d="M100.9,190.4"/>
		</g>
	</g>
	<g>
		<g class="st4">
			<path class="st1" d="M182.2,112.7"/>
		</g>
		<g>
			<path class="st6" d="M182.2,109.1"/>
		</g>
	</g>
	<path class="st7" d="M174.9,142.9c-2.7,3.7-5.7,7.2-9,10.5"/>
	<path class="st7" d="M100.9,190.4"/>
	<path class="st8" d="M168.7,109.1"/>
</g>
<g>
	<g>
		<g class="st4">
			
				<ellipse transform="matrix(0.1594 -0.9872 0.9872 0.1594 -28.3494 192.0716)" class="st1" cx="98.6" cy="112.7" rx="81.3" ry="81.3"/>
		</g>
		<g>
			
				<ellipse transform="matrix(0.1594 -0.9872 0.9872 0.1594 -24.7882 189.0392)" class="st9" cx="98.6" cy="109.1" rx="81.3" ry="81.3"/>
		</g>
	</g>
	<path class="st10" d="M163.5,153.4c-17.2,17.2-40.7,32.4-65,32.4c-24.3,0-47.8-15.3-65-32.4c-3.1-3.1-6-6.5-8.6-10
		c12.9,27.7,41.1,46.9,73.7,46.9c32.8,0,61.1-19.5,73.9-47.5C169.8,146.6,166.8,150.1,163.5,153.4z"/>
	<ellipse transform="matrix(0.994 -0.1095 0.1095 0.994 -11.3528 11.4557)" class="st8" cx="98.6" cy="109.1" rx="67.8" ry="67.8"/>
	<path class="st8" d="M44.5,70.4c14.2-14.2,33.6-22.2,53.7-22.2c20.1,0,39.5,8.1,53.7,22.2c2.9,2.9,5.6,6,7.9,9.4
		C148.9,57,125.6,41.3,98.6,41.3c-25.5,0-47.8,14.1-59.3,35C40.9,74.2,42.6,72.3,44.5,70.4z"/>
	<g>
		<text transform="matrix(1 0 0 1 88.5713 63.5046)" class="st11 st12 st13">12</text>
	</g>
	<g>
		<text transform="matrix(1 0 0 1 93.5908 169.2238)" class="st11 st12 st13">6</text>
	</g>
	<g>
		<text transform="matrix(1 0 0 1 146.4507 116.364)" class="st11 st12 st13">3</text>
	</g>
	<g>
		<text transform="matrix(1 0 0 1 40.7319 116.3645)" class="st11 st12 st13">9</text>
	</g>
	<g>
		<text transform="matrix(1 0 0 1 140.6563 89.448)" class="st11 st12 st13">2</text>
	</g>
	<g>
		<text transform="matrix(1 0 0 1 41.6934 89.4489)" class="st11 st12 st13">10</text>
	</g>
	<g>
		<text transform="matrix(1 0 0 1 121.5366 70.7561)" class="st11 st12 st13">1</text>
	</g>
	<g>
		<text transform="matrix(1 0 0 1 60.8115 70.7575)" class="st11 st12 st13">11</text>
	</g>
	<g>
		<text transform="matrix(1 0 0 1 121.5366 162.7185)" class="st11 st12 st13">5</text>
	</g>
	<g>
		<text transform="matrix(1 0 0 1 65.8311 162.7195)" class="st11 st12 st13">7</text>
	</g>
	<g>
		<text transform="matrix(1 0 0 1 140.6563 142.719)" class="st11 st12 st13">4</text>
	</g>
	<g>
		<text transform="matrix(1 0 0 1 46.7129 142.7199)" class="st11 st12 st13">8</text>
	</g>
	<polygon class="st9" points="98.6,57.5 95.1,62.6 95.8,109.1 101.4,109.1 102.2,62.6 	"/>
	<polygon class="st9" points="127.4,92.5 121.3,91.9 97.2,106.7 100,111.5 124.8,98 	"/>
	<path class="st11" d="M104.1,109.1c0,3-2.5,5.5-5.5,5.5c-3,0-5.5-2.5-5.5-5.5c0-3,2.5-5.5,5.5-5.5
		C101.6,103.6,104.1,106,104.1,109.1z"/>
</g>
</svg>
