<?xml version="1.0" encoding="utf-8"?>
<!-- Generator: Adobe Illustrator 22.1.0, SVG Export Plug-In . SVG Version: 6.00 Build 0)  -->
<svg version="1.1" id="图层_1" xmlns="http://www.w3.org/2000/svg" xmlns:xlink="http://www.w3.org/1999/xlink" x="0px" y="0px"
	 viewBox="0 0 200 200" style="enable-background:new 0 0 200 200;" xml:space="preserve">
<style type="text/css">
	.st0{fill:none;}
	.st1{fill:#040000;}
	.st2{font-family:'ChalkboardSE-Light';}
	.st3{font-size:12px;}
	.st4{opacity:0.2;}
	.st5{fill:#3688A1;}
	.st6{fill:#54B395;}
	.st7{opacity:0.3;fill:#54B395;}
	.st8{fill:#F2F2F2;}
	.st9{fill:#070001;}
	.st10{fill:#7A5B94;}
	.st11{opacity:0.3;fill:#7A5B94;enable-background:new    ;}
	.st12{fill:#4F4D4D;}
	.st13{font-family:'ArialMT';}
	.st14{font-size:19.5672px;}
</style>
<polygon class="st0" points="172.5,37.9 27.6,37.9 26.9,8.1 171.7,8.1 "/>
<text transform="matrix(1 0 0 1 27.1165 18.1133)" class="st1 st2 st3">San Juan 21:00/ 9:00pm</text>
<rect x="200" y="205" class="st0" width="0" height="17"/>
<g>
	<g>
		<g class="st4">
			<path class="st1" d="M100,31.4"/>
		</g>
		<g>
			<path class="st5" d="M100,27.8"/>
		</g>
	</g>
</g>
<g>
	<g>
		<g class="st4">
			<path class="st1" d="M100.9,31.4"/>
		</g>
		<g>
			<path class="st6" d="M100.9,27.8"/>
		</g>
	</g>
	<g>
		<g class="st4">
			<path class="st1" d="M100.9,194"/>
		</g>
		<g>
			<path class="st6" d="M100.9,190.4"/>
		</g>
	</g>
	<path class="st7" d="M100.9,190.4"/>
</g>
<g>
	<g>
		<g class="st4">
			<path class="st1" d="M100.5,33.2"/>
		</g>
		<g>
			<path class="st6" d="M100.5,29.6"/>
		</g>
	</g>
	<g>
		<g class="st4">
			<path class="st1" d="M19.2,114.5"/>
		</g>
		<g>
			<path class="st6" d="M19.2,110.9"/>
		</g>
	</g>
	<g>
		<g class="st4">
			<path class="st1" d="M100.5,195.8"/>
		</g>
		<g>
			<path class="st6" d="M100.5,192.2"/>
		</g>
	</g>
	<g>
		<g class="st4">
			<path class="st1" d="M181.8,114.5"/>
		</g>
		<g>
			<path class="st6" d="M181.8,110.9"/>
		</g>
	</g>
	<path class="st7" d="M174.4,144.7c-2.7,3.7-5.7,7.2-9,10.5"/>
	<path class="st7" d="M100.5,192.2"/>
	<path class="st8" d="M168.3,110.9"/>
</g>
<g>
	<g>
		<g class="st4">
			<ellipse class="st9" cx="99.6" cy="112.8" rx="81.3" ry="81.3"/>
		</g>
		<g>
			<ellipse class="st10" cx="99.6" cy="109.2" rx="81.3" ry="81.3"/>
		</g>
	</g>
	<path class="st11" d="M164.5,153.5c-17.2,17.2-40.7,32.4-65,32.4s-47.8-15.3-65-32.4c-3.1-3.1-6-6.5-8.6-10
		c12.9,27.7,41.1,46.9,73.7,46.9c32.8,0,61.1-19.5,73.9-47.5C170.8,146.7,167.8,150.2,164.5,153.5z"/>
	<ellipse class="st8" cx="99.6" cy="109.2" rx="67.8" ry="67.8"/>
	<path class="st8" d="M45.5,70.6c14.2-14.2,33.6-22.2,53.7-22.2s39.5,8.1,53.7,22.2c2.9,2.9,5.6,6,7.9,9.4
		c-10.9-22.8-34.2-38.5-61.2-38.5c-25.5,0-47.8,14.1-59.3,35C41.9,74.3,43.6,72.4,45.5,70.6z"/>
	<g>
		<text transform="matrix(1 0 0 1 89.5299 63.6049)" class="st12 st13 st14">12</text>
	</g>
	<g>
		<text transform="matrix(1 0 0 1 94.5489 169.3241)" class="st12 st13 st14">6</text>
	</g>
	<g>
		<text transform="matrix(1 0 0 1 147.4083 116.4643)" class="st12 st13 st14">3</text>
	</g>
	<g>
		<text transform="matrix(1 0 0 1 41.6891 116.4652)" class="st12 st13 st14">9</text>
	</g>
	<g>
		<text transform="matrix(1 0 0 1 141.6134 89.5487)" class="st12 st13 st14">2</text>
	</g>
	<g>
		<text transform="matrix(1 0 0 1 42.652 89.5492)" class="st12 st13 st14">10</text>
	</g>
	<g>
		<text transform="matrix(1 0 0 1 122.4952 70.8573)" class="st12 st13 st14">1</text>
	</g>
	<g>
		<text transform="matrix(1 0 0 1 61.7706 70.8578)" class="st12 st13 st14">11</text>
	</g>
	<g>
		<text transform="matrix(1 0 0 1 122.4952 162.8192)" class="st12 st13 st14">5</text>
	</g>
	<g>
		<text transform="matrix(1 0 0 1 66.7892 162.8197)" class="st12 st13 st14">7</text>
	</g>
	<g>
		<text transform="matrix(1 0 0 1 141.6134 142.8197)" class="st12 st13 st14">4</text>
	</g>
	<g>
		<text transform="matrix(1 0 0 1 47.6705 142.8202)" class="st12 st13 st14">8</text>
	</g>
	<polygon class="st10" points="99.6,57.7 96.1,62.7 96.8,109.2 102.4,109.2 103.1,62.7 	"/>
	<path class="st12" d="M105.1,109.2c0,3-2.5,5.5-5.5,5.5s-5.5-2.5-5.5-5.5s2.5-5.5,5.5-5.5S105.1,106.2,105.1,109.2z"/>
</g>
<g>
	<polygon class="st10" points="60.9,109.4 65.9,112.9 94.1,112.2 94.1,106.6 65.9,105.9 	"/>
</g>
</svg>
