<?xml version="1.0" encoding="utf-8"?>
<!-- Generator: Adobe Illustrator 22.1.0, SVG Export Plug-In . SVG Version: 6.00 Build 0)  -->
<svg version="1.1" id="图层_1" xmlns="http://www.w3.org/2000/svg" xmlns:xlink="http://www.w3.org/1999/xlink" x="0px" y="0px"
	 viewBox="0 0 200 200" style="enable-background:new 0 0 200 200;" xml:space="preserve">
<style type="text/css">
	.st0{fill:none;}
	.st1{fill:#040000;}
	.st2{font-family:'ChalkboardSE-Light';}
	.st3{font-size:12px;}
	.st4{opacity:0.2;}
	.st5{fill:#7F5E9A;}
	.st6{opacity:0.3;fill:#7F5E9A;}
	.st7{fill:#F1F1F1;}
	.st8{fill:#4D4D4D;}
	.st9{font-family:'Exo-Bold';}
	.st10{font-size:19.5672px;}
</style>
<polygon class="st0" points="156.1,36.7 34.8,36.7 34.1,7 155.5,7 "/>
<text transform="matrix(1 0 0 1 34.3419 16.9844)"><tspan x="0" y="0" class="st1 st2 st3">Alaska 16:00/ </tspan><tspan x="0.3" y="14.4" class="st1 st2 st3">4:00pm</tspan></text>
<g>
	<g>
		<g class="st4">
			
				<ellipse transform="matrix(0.9254 -0.3789 0.3789 0.9254 -36.348 45.9651)" class="st1" cx="98.6" cy="115.3" rx="81.3" ry="81.3"/>
		</g>
		<g>
			
				<ellipse transform="matrix(0.9254 -0.3789 0.3789 0.9254 -34.9811 45.6961)" class="st5" cx="98.6" cy="111.7" rx="81.3" ry="81.3"/>
		</g>
	</g>
	<path class="st6" d="M163.5,156.1c-17.2,17.2-40.7,32.4-65,32.4c-24.3,0-47.8-15.3-65-32.4c-3.1-3.1-6-6.5-8.6-10
		C37.9,173.8,66,193,98.6,193c32.8,0,61.1-19.5,73.9-47.5C169.8,149.2,166.8,152.8,163.5,156.1z"/>
	
		<ellipse transform="matrix(0.9953 -9.724332e-02 9.724332e-02 0.9953 -10.3971 10.1186)" class="st7" cx="98.6" cy="111.7" rx="67.8" ry="67.8"/>
	<path class="st7" d="M44.5,73.1c14.2-14.2,33.6-22.2,53.7-22.2c20.1,0,39.5,8.1,53.7,22.2c2.9,2.9,5.6,6,7.9,9.4
		c-10.9-22.8-34.2-38.5-61.2-38.5c-25.5,0-47.8,14.1-59.3,35C40.9,76.9,42.6,74.9,44.5,73.1z"/>
	<g>
		<text transform="matrix(1 0 0 1 88.5728 66.1538)" class="st8 st9 st10">12</text>
	</g>
	<g>
		<text transform="matrix(1 0 0 1 93.5919 171.873)" class="st8 st9 st10">6</text>
	</g>
	<g>
		<text transform="matrix(1 0 0 1 146.4512 119.0132)" class="st8 st9 st10">3</text>
	</g>
	<g>
		<text transform="matrix(1 0 0 1 40.732 119.0141)" class="st8 st9 st10">9</text>
	</g>
	<g>
		<text transform="matrix(1 0 0 1 140.6563 92.0976)" class="st8 st9 st10">2</text>
	</g>
	<g>
		<text transform="matrix(1 0 0 1 41.6949 92.0981)" class="st8 st9 st10">10</text>
	</g>
	<g>
		<text transform="matrix(1 0 0 1 121.5381 73.4062)" class="st8 st9 st10">1</text>
	</g>
	<g>
		<text transform="matrix(1 0 0 1 60.8135 73.4067)" class="st8 st9 st10">11</text>
	</g>
	<g>
		<text transform="matrix(1 0 0 1 121.5381 165.3681)" class="st8 st9 st10">5</text>
	</g>
	<g>
		<text transform="matrix(1 0 0 1 65.8321 165.3686)" class="st8 st9 st10">7</text>
	</g>
	<g>
		<text transform="matrix(1 0 0 1 140.6563 145.3686)" class="st8 st9 st10">4</text>
	</g>
	<g>
		<text transform="matrix(1 0 0 1 46.7134 145.3691)" class="st8 st9 st10">8</text>
	</g>
	<polygon class="st5" points="98.6,60.2 95.1,65.2 95.8,111.7 101.4,111.7 102.2,65.2 	"/>
	<polygon class="st5" points="127.4,128.3 124.8,122.8 100,109.3 97.2,114.1 121.3,128.9 	"/>
	<path class="st8" d="M104.1,111.7c0,3-2.5,5.5-5.5,5.5c-3,0-5.5-2.5-5.5-5.5c0-3,2.5-5.5,5.5-5.5
		C101.6,106.2,104.1,108.7,104.1,111.7z"/>
</g>
</svg>
