<?xml version="1.0" encoding="utf-8"?>
<!-- Generator: Adobe Illustrator 22.1.0, SVG Export Plug-In . SVG Version: 6.00 Build 0)  -->
<svg version="1.1" id="图层_1" xmlns="http://www.w3.org/2000/svg" xmlns:xlink="http://www.w3.org/1999/xlink" x="0px" y="0px"
	 viewBox="0 0 200 200" style="enable-background:new 0 0 200 200;" xml:space="preserve">
<style type="text/css">
	.st0{fill:none;}
	.st1{fill:#040000;}
	.st2{font-family:'ChalkboardSE-Light';}
	.st3{font-size:12px;}
	.st4{opacity:0.2;}
	.st5{fill:#7F5E9B;}
	.st6{opacity:0.3;fill:#7F5E9B;}
	.st7{fill:#F2F2F2;}
	.st8{fill:#4E4D4D;}
	.st9{font-family:'Exo-Bold';}
	.st10{font-size:19.5672px;}
</style>
<polygon class="st0" points="162.6,31.1 41.3,31.1 40.7,8.3 162,8.3 "/>
<text transform="matrix(1 0 0 1 40.9723 18.2491)" class="st1 st2 st3">Beijing 9:00/ 9:00am</text>
<rect x="4.5" y="41" class="st0" width="7.5" height="3.5"/>
<g>
	<g>
		<g class="st4">
			
				<ellipse transform="matrix(0.1818 -0.9833 0.9833 0.1818 -29.7062 192.1958)" class="st1" cx="100.6" cy="113.9" rx="81.3" ry="81.3"/>
		</g>
		<g>
			
				<ellipse transform="matrix(0.1818 -0.9833 0.9833 0.1818 -26.1591 189.2444)" class="st5" cx="100.6" cy="110.3" rx="81.3" ry="81.3"/>
		</g>
	</g>
	<path class="st6" d="M165.5,154.7c-17.2,17.2-40.7,32.4-65,32.4c-24.3,0-47.8-15.3-65-32.4c-3.1-3.1-6-6.5-8.6-10
		c12.9,27.7,41.1,46.9,73.7,46.9c32.8,0,61.1-19.5,73.9-47.5C171.8,147.9,168.8,151.4,165.5,154.7z"/>
	<path class="st7" d="M168.5,110.3c0,37.5-30.4,67.8-67.8,67.8c-37.5,0-67.8-30.4-67.8-67.8c0-37.5,30.4-67.8,67.8-67.8
		C138.1,42.5,168.5,72.9,168.5,110.3z"/>
	<path class="st7" d="M46.5,71.7c14.2-14.2,33.6-22.2,53.7-22.2c20.1,0,39.5,8.1,53.7,22.2c2.9,2.9,5.6,6,7.9,9.3
		c-10.9-22.8-34.2-38.5-61.2-38.5c-25.5,0-47.8,14.1-59.3,35C42.9,75.5,44.7,73.6,46.5,71.7z"/>
	<g>
		<text transform="matrix(1 0 0 1 90.6069 64.7715)" class="st8 st9 st10">12</text>
	</g>
	<g>
		<text transform="matrix(1 0 0 1 95.626 170.4907)" class="st8 st9 st10">6</text>
	</g>
	<g>
		<text transform="matrix(1 0 0 1 148.4854 117.6304)" class="st8 st9 st10">3</text>
	</g>
	<g>
		<text transform="matrix(1 0 0 1 42.7666 117.6309)" class="st8 st9 st10">9</text>
	</g>
	<g>
		<text transform="matrix(1 0 0 1 142.6909 90.7148)" class="st8 st9 st10">2</text>
	</g>
	<g>
		<text transform="matrix(1 0 0 1 43.729 90.7163)" class="st8 st9 st10">10</text>
	</g>
	<g>
		<text transform="matrix(1 0 0 1 123.5723 72.0239)" class="st8 st9 st10">1</text>
	</g>
	<g>
		<text transform="matrix(1 0 0 1 62.8477 72.0244)" class="st8 st9 st10">11</text>
	</g>
	<g>
		<text transform="matrix(1 0 0 1 123.5723 163.9863)" class="st8 st9 st10">5</text>
	</g>
	<g>
		<text transform="matrix(1 0 0 1 67.8662 163.9863)" class="st8 st9 st10">7</text>
	</g>
	<g>
		<text transform="matrix(1 0 0 1 142.6909 143.9863)" class="st8 st9 st10">4</text>
	</g>
	<g>
		<text transform="matrix(1 0 0 1 48.7476 143.9868)" class="st8 st9 st10">8</text>
	</g>
	<polygon class="st5" points="100.6,58.8 97.1,63.8 97.9,110.3 103.4,110.3 104.2,63.8 	"/>
	<polygon class="st5" points="67.4,110.3 72.5,113.9 100.6,113.1 100.6,107.6 72.5,106.8 	"/>
	<path class="st8" d="M106.1,110.3c0,3-2.5,5.5-5.5,5.5c-3,0-5.5-2.5-5.5-5.5c0-3,2.5-5.5,5.5-5.5
		C103.7,104.9,106.1,107.3,106.1,110.3z"/>
</g>
</svg>
